<svg xmlns="http://www.w3.org/2000/svg" width="173" height="115" viewBox="0 0 173 115">
  <metadata><?xpacket begin="﻿" id="W5M0MpCehiHzreSzNTczkc9d"?>
<x:xmpmeta xmlns:x="adobe:ns:meta/" x:xmptk="Adobe XMP Core 5.6-c138 79.159824, 2016/09/14-01:09:01        ">
   <rdf:RDF xmlns:rdf="http://www.w3.org/1999/02/22-rdf-syntax-ns#">
      <rdf:Description rdf:about=""/>
   </rdf:RDF>
</x:xmpmeta>
                                                                                                    
                                                                                                    
                                                                                                    
                                                                                                    
                                                                                                    
                                                                                                    
                                                                                                    
                                                                                                    
                                                                                                    
                                                                                                    
                                                                                                    
                                                                                                    
                                                                                                    
                                                                                                    
                                                                                                    
                                                                                                    
                                                                                                    
                                                                                                    
                                                                                                    
                                                                                                    
                           
<?xpacket end="w"?></metadata>
<defs>
    <style>
      .cls-1 {
        fill: #f3f4f5;
        fill-opacity: 0.5;
      }

      .cls-1, .cls-3 {
        stroke: #c4c9cd;
      }

      .cls-1, .cls-3, .cls-5 {
        stroke-width: 2px;
      }

      .cls-1, .cls-5, .cls-6, .cls-7 {
        fill-rule: evenodd;
      }

      .cls-2 {
        fill: #dbdfe1;
        opacity: 0.8;
      }

      .cls-3, .cls-4, .cls-5 {
        fill: #fff;
      }

      .cls-4, .cls-5 {
        stroke: #dbdfe1;
      }

      .cls-4 {
        stroke-width: 1px;
      }

      .cls-6 {
        fill: #9aa8b1;
      }

      .cls-7 {
        fill: #c4c9cd;
      }
    </style>
  </defs>
  <path id="Rectangle_34_copy_2" data-name="Rectangle 34 copy 2" class="cls-1" d="M0.591,7.991l149.784-7.85L155.4,96.01,5.615,103.859Z"/>
  <rect id="Rectangle_34_copy_3" data-name="Rectangle 34 copy 3" class="cls-2" x="17" y="19" width="150" height="96"/>
  <rect id="Rectangle_34_copy" data-name="Rectangle 34 copy" class="cls-3" x="23" y="14" width="150" height="96"/>
  <rect class="cls-4" x="30" y="21" width="136" height="82"/>
  <path id="Rectangle_36_copy" data-name="Rectangle 36 copy" class="cls-5" d="M39,30H72v1H39V30Zm85,0h33v1H124V30ZM72,29h1v3H72V29Zm51,0h1v3h-1V29Z"/>
  <path id="Rectangle_36_copy_2" data-name="Rectangle 36 copy 2" class="cls-5" d="M39,93H82v1H39V93Zm75,0h43v1H114V93ZM82,92h1v3H82V92Zm31,0h1v3h-1V92Z"/>
  <path class="cls-6" d="M92.5,92.06a1.471,1.471,0,0,0-1.528,1.249,0.85,0.85,0,0,0,.328.714,0.246,0.246,0,0,1-.019.389,0.9,0.9,0,0,1-.631.318,0.741,0.741,0,0,1-.662-0.8,2.091,2.091,0,0,1,.928-1.5,3.723,3.723,0,0,1,2.215-.866,5.914,5.914,0,0,1,3.885-1.574,6.622,6.622,0,0,1,2.437.535c0.421,0.166,2.054.867,3.211,1.389a8.6,8.6,0,0,0,2.975.828,1.2,1.2,0,0,0,1.405-.937,0.674,0.674,0,0,0-.248-0.561,0.386,0.386,0,0,1-.142-0.261,0.691,0.691,0,0,1,.643-0.675,0.788,0.788,0,0,1,.7.828,2.469,2.469,0,0,1-1.72,1.918,5.142,5.142,0,0,1-3.81,1.956,8.408,8.408,0,0,1-2.957-.688c-0.879-.332-3.637-1.491-4.745-1.854a6.807,6.807,0,0,0-2.258-.408H92.5Zm3.557-1.542a2.428,2.428,0,0,0-2.048,1.09,7.251,7.251,0,0,1,2.419.567c1.206,0.421,3.433,1.4,4.212,1.676a8.009,8.009,0,0,0,2.518.535,2.3,2.3,0,0,0,2.178-1.115,5.4,5.4,0,0,1-2.864-.5c-0.916-.363-3.44-1.554-4.294-1.854a6.413,6.413,0,0,0-2.109-.4H96.062Z"/>
  <path id="NUTANIX" class="cls-7" d="M86.61,32.448V28.427A0.449,0.449,0,0,0,86.149,28a0.461,0.461,0,0,0-.485.424V31.4l-2.528-3.158A0.677,0.677,0,0,0,82.619,28a0.587,0.587,0,0,0-.612.548v3.984a0.45,0.45,0,0,0,.461.431,0.462,0.462,0,0,0,.485-0.431V29.473l2.6,3.275a0.618,0.618,0,0,0,.477.219A0.549,0.549,0,0,0,86.61,32.448Zm5.735-1.455V28.435A0.452,0.452,0,0,0,91.877,28a0.464,0.464,0,0,0-.493.431v2.537a1.346,1.346,0,0,1-2.687,0V28.435A0.452,0.452,0,0,0,88.228,28a0.457,0.457,0,0,0-.485.431V31c0,1.2.755,2.01,2.3,2.01S92.346,32.207,92.346,30.993Zm4.98-2.559a0.4,0.4,0,0,0-.413-0.387H93.494a0.385,0.385,0,1,0,0,.768h1.232v3.721a0.452,0.452,0,0,0,.469.431,0.462,0.462,0,0,0,.485-0.431V28.815h1.232A0.4,0.4,0,0,0,97.326,28.435Zm4.788,4.065a0.573,0.573,0,0,0-.031-0.161l-1.662-3.875a0.823,0.823,0,0,0-.8-0.46,0.8,0.8,0,0,0-.739.46l-1.654,3.875a0.3,0.3,0,0,0-.04.161,0.487,0.487,0,0,0,.509.468,0.494,0.494,0,0,0,.461-0.285L98.449,32h2.417l0.278,0.68a0.5,0.5,0,0,0,.462.285A0.491,0.491,0,0,0,102.114,32.5ZM100.6,31.227H98.712l0.946-2.3Zm6.912,1.221V28.427A0.449,0.449,0,0,0,107.047,28a0.461,0.461,0,0,0-.485.424V31.4l-2.529-3.158A0.676,0.676,0,0,0,103.517,28a0.588,0.588,0,0,0-.613.548v3.984a0.45,0.45,0,0,0,.462.431,0.462,0.462,0,0,0,.485-0.431V29.473l2.6,3.275a0.62,0.62,0,0,0,.477.219A0.55,0.55,0,0,0,107.508,32.448Zm2.078,0.088V28.427a0.476,0.476,0,0,0-.946,0v4.108a0.45,0.45,0,0,0,.461.431A0.462,0.462,0,0,0,109.586,32.536Zm5.4,0.007a0.383,0.383,0,0,0-.079-0.241l-1.5-1.886,1.384-1.762a0.368,0.368,0,0,0,.079-0.234,0.445,0.445,0,0,0-.469-0.409,0.464,0.464,0,0,0-.382.183l-1.24,1.63-1.248-1.63a0.5,0.5,0,0,0-.39-0.183,0.442,0.442,0,0,0-.461.417,0.358,0.358,0,0,0,.08.227l1.391,1.769-1.5,1.886a0.389,0.389,0,0,0-.079.241,0.432,0.432,0,0,0,.453.417A0.442,0.442,0,0,0,111.4,32.8l1.383-1.769,1.368,1.762a0.461,0.461,0,0,0,.373.175A0.447,0.447,0,0,0,114.985,32.543Z"/>
</svg>
